# xmcd
#
# Track frame offsets:
#	150
#	18246
#	34473
#	49787
#	66002
#	78818
#	97501
#	119152
#	135548
#	148760
#	168897
#	186823
#	207130
#	221935
#	236309
#	254691
#	272667
#	288818
#	306868
#
# Disc length: 4308 seconds
#
# Revision: 1
# Processed by: cddbd v1.4PL0 Copyright (c) Steve Scherf et al.
# Submitted via: audiograbber 1.82.02
#
DISCID=1010d213
DTITLE=Various Artist - Hott Country 092
DYEAR=2003
DGENRE=Country
TTITLE0=Toby Keith - I Love This Bar
TTITLE1=Brooks and Dunn - You Can't Take The Honky Tonk Out Of The Girl
TTITLE2=Reba McEntire - I'm Gonna Take That Mountain
TTITLE3=George Strait - Cowboys Like Us
TTITLE4=Terri Clark - I Wanna Do It All
TTITLE5=Aaron Lines - Close
TTITLE6=Kenny Chesney - I Remember
TTITLE7=Brad Paisley - Little Moments
TTITLE8=Susan Ashton - She Is
TTITLE9=Alan Jackson - Remember When
TTITLE10=Sara Evans - Perfect
TTITLE11=Vince Gill - Young Man's Town
TTITLE12=Trace Adkins - Hot Mama
TTITLE13=Oh Susanna - Right By Your Side
TTITLE14=Jessica Andrews - Good Time
TTITLE15=Jimmy Wayne - I Love You This Much
TTITLE16=Jeff Bates - Rainbow Man
TTITLE17=Adam Gregory - Walkin'
TTITLE18=Daryl Worley - I Need A Breather
EXTD=
EXTT0=
EXTT1=
EXTT2=
EXTT3=
EXTT4=
EXTT5=
EXTT6=
EXTT7=
EXTT8=
EXTT9=
EXTT10=
EXTT11=
EXTT12=
EXTT13=
EXTT14=
EXTT15=
EXTT16=
EXTT17=
EXTT18=
PLAYORDER=
